<svg width="40" height="40" viewBox="0 0 40 40"  xmlns="http://www.w3.org/2000/svg">
<path fill-rule="evenodd" clip-rule="evenodd" d="M20 40C31.0457 40 40 31.0457 40 20C40 8.9543 31.0457 0 20 0C8.9543 0 0 8.9543 0 20C0 31.0457 8.9543 40 20 40ZM13.5525 26.4475C13.9214 26.8158 14.3647 27 14.8824 27C15.4 27 15.843 26.8158 16.2113 26.4475C16.5802 26.0786 16.7647 25.6353 16.7647 25.1176C16.7647 24.6 16.5802 24.1567 16.2113 23.7878C15.843 23.4195 15.4 23.2353 14.8824 23.2353C14.3647 23.2353 13.9214 23.4195 13.5525 23.7878C13.1842 24.1567 13 24.6 13 25.1176C13 25.6353 13.1842 26.0786 13.5525 26.4475ZM25.1412 21.8819C25.8314 23.4744 26.1765 25.1804 26.1765 27H29C29 24.7882 28.5805 22.7098 27.7416 20.7647C26.9021 18.8196 25.7608 17.1255 24.3176 15.6824C22.8745 14.2392 21.1804 13.0982 19.2353 12.2593C17.2902 11.4198 15.2118 11 13 11V13.8235C14.8196 13.8235 16.5256 14.1686 18.1181 14.8588C19.71 15.549 21.106 16.494 22.3064 17.6936C23.506 18.894 24.451 20.29 25.1412 21.8819ZM18.3289 21.6711C19.7959 23.1374 20.5294 24.9137 20.5294 27H23.3529C23.3529 25.5569 23.0822 24.2078 22.5407 22.9529C21.9998 21.698 21.2629 20.6038 20.3299 19.6701C19.3962 18.7371 18.302 18.0002 17.0471 17.4593C15.7922 16.9178 14.4431 16.6471 13 16.6471V19.4706C15.0863 19.4706 16.8626 20.2041 18.3289 21.6711Z" />
</svg>
