<svg width="24" height="24" viewBox="0 0 24 24" xmlns="http://www.w3.org/2000/svg">
<path d="M19.0542 2.17795C18.6364 2.17795 18.2805 2.32495 17.9865 2.61895C17.6925 2.91296 17.5455 3.26499 17.5455 3.67505C17.5455 4.0851 17.6886 4.43327 17.9749 4.71953C18.2611 5.0058 18.6093 5.14893 19.0194 5.14893C19.4294 5.14893 19.7814 5.0058 20.0755 4.71953C20.3695 4.43327 20.5165 4.0851 20.5165 3.67505C20.5165 3.26499 20.3733 2.91296 20.0871 2.61895C19.8008 2.32495 19.4565 2.17795 19.0542 2.17795ZM3.99034 2.57253L3.20118 3.3617C1.91684 4.64603 1.23599 5.83752 1.15862 6.93617C1.08125 8.03481 1.60737 9.14893 2.73696 10.2785L4.64025 12.1818C5.33657 12.8936 5.71181 13.4971 5.76597 13.9923C5.82013 14.4874 5.56094 15.0213 4.98841 15.5938C4.74083 15.8878 4.62091 16.2321 4.62864 16.6267C4.63638 17.0213 4.77951 17.3578 5.05804 17.6364C5.33657 17.9149 5.67313 18.058 6.06771 18.0658C6.4623 18.0735 6.80659 17.9536 7.1006 17.706L7.12381 17.7292C7.51065 17.3424 7.87429 17.0948 8.21472 16.9865C8.55514 16.8781 8.90717 16.913 9.27081 17.0909C9.63445 17.2689 10.0484 17.5899 10.5126 18.0542L12.7176 20.2824C13.8782 21.4275 15.0194 21.9691 16.1412 21.9072C17.2631 21.8453 18.4662 21.1721 19.7505 19.8878L20.5165 19.0986L18.8685 17.4275L18.4507 17.8453C17.7234 18.5725 17.0735 18.94 16.501 18.9478C15.9284 18.9555 15.294 18.6112 14.5977 17.9149L11.9981 15.3153C10.6673 13.9845 9.35978 13.853 8.07545 14.9207L7.82013 14.6654C8.36172 14.0155 8.60543 13.3733 8.55127 12.7389C8.49711 12.1044 8.14508 11.47 7.49518 10.8356L5.1741 8.49129C4.69441 8.0116 4.38106 7.57447 4.23406 7.17988C4.08706 6.7853 4.09479 6.38685 4.25727 5.98452C4.41975 5.5822 4.74857 5.12572 5.24373 4.61509L5.63831 4.2205L3.99034 2.57253ZM15.5493 5.68278C15.1161 5.68278 14.7563 5.82979 14.47 6.12379C14.1838 6.41779 14.0406 6.76982 14.0406 7.17988C14.0406 7.58994 14.1838 7.94197 14.47 8.23598C14.7563 8.52998 15.1045 8.67698 15.5145 8.67698C15.9246 8.67698 16.2766 8.52998 16.5706 8.23598C16.8646 7.94197 17.0116 7.58994 17.0116 7.17988C17.0116 6.76982 16.8685 6.42166 16.5822 6.13539C16.296 5.84913 15.9517 5.69826 15.5493 5.68278ZM12.0213 9.18762C11.6035 9.18762 11.2476 9.33462 10.9536 9.62863C10.6596 9.92263 10.5126 10.2747 10.5126 10.6847C10.5126 11.0948 10.6596 11.4468 10.9536 11.7408C11.2476 12.0348 11.5996 12.1818 12.0097 12.1818C12.4197 12.1818 12.7718 12.0348 13.0658 11.7408C13.3598 11.4468 13.5068 11.0948 13.5068 10.6847C13.5068 10.2747 13.3598 9.9265 13.0658 9.64023C12.7718 9.35396 12.4236 9.20309 12.0213 9.18762Z" />
</svg>
