<svg width="24" height="24" viewBox="0 0 24 24" xmlns="http://www.w3.org/2000/svg">
<path d="M2.8 7.5H1V5.7H2.8C5.941 5.7 7.732 6.7989 8.9398 8.2686C8.5708 8.8572 8.2612 9.4494 7.9903 10.0137C7.012 8.535 5.6206 7.5 2.8 7.5ZM17.2 16.5C14.4244 16.5 13.0564 15.4677 12.0889 13.9926C11.8171 14.5569 11.5066 15.1482 11.1349 15.7359C12.3292 17.202 14.0968 18.3 17.2 18.3V21L22.6 17.4L17.2 13.8V16.5ZM17.2 7.5V10.2L22.6 6.6L17.2 3V5.7C11.9494 5.7 10.5076 8.8338 9.235 11.6004C8.0263 14.2293 6.9814 16.5 2.8 16.5H1V18.3H2.8C8.1352 18.3 9.5887 15.1401 10.8712 12.3519C12.0691 9.7482 13.1023 7.5 17.2 7.5Z" />
</svg>
