<svg width="24" height="24" viewBox="0 0 24 24" xmlns="http://www.w3.org/2000/svg">
<path d="M5 20C4.45 20 3.979 19.8043 3.587 19.413C3.19567 19.021 3 18.55 3 18C3 17.45 3.19567 16.979 3.587 16.587C3.979 16.1957 4.45 16 5 16C5.55 16 6.02067 16.1957 6.412 16.587C6.804 16.979 7 17.45 7 18C7 18.55 6.804 19.021 6.412 19.413C6.02067 19.8043 5.55 20 5 20ZM17 20C17 18.0667 16.6333 16.254 15.9 14.562C15.1667 12.8707 14.1627 11.3873 12.888 10.112C11.6127 8.83733 10.1293 7.83333 8.438 7.1C6.746 6.36667 4.93333 6 3 6V3C5.35 3 7.55833 3.446 9.625 4.338C11.6917 5.22933 13.4917 6.44167 15.025 7.975C16.5583 9.50833 17.771 11.3083 18.663 13.375C19.5543 15.4417 20 17.65 20 20H17ZM11 20C11 17.7833 10.2207 15.896 8.662 14.338C7.104 12.7793 5.21667 12 3 12V9C4.53333 9 5.96667 9.28767 7.3 9.863C8.63333 10.4377 9.796 11.2207 10.788 12.212C11.7793 13.204 12.5623 14.3667 13.137 15.7C13.7123 17.0333 14 18.4667 14 20H11Z"/>
</svg>
