<svg width="40" height="40" viewBox="0 0 40 40" xmlns="http://www.w3.org/2000/svg">
<path d="M20 40C31.0457 40 40 31.0457 40 20C40 8.9543 31.0457 0 20 0C8.9543 0 0 8.9543 0 20C0 31.0457 8.9543 40 20 40ZM24.6484 11.4023C24.9217 11.1341 25.2525 11 25.6408 11C26.0148 11 26.3348 11.1341 26.6009 11.4023C26.867 11.6704 27 11.9915 27 12.3656C27 12.7396 26.8634 13.0572 26.5901 13.3183C26.3168 13.5794 25.9896 13.7099 25.6084 13.7099C25.2273 13.7099 24.9037 13.5794 24.6376 13.3183C24.3715 13.0572 24.2385 12.7396 24.2385 12.3656C24.2385 11.9915 24.3751 11.6704 24.6484 11.4023ZM10.9055 12.0797L11.639 11.3599L13.1708 12.8631L12.804 13.223C12.3438 13.6888 12.0381 14.1051 11.8871 14.4721C11.7361 14.8391 11.7289 15.2025 11.8655 15.5624C12.0022 15.9223 12.2934 16.3211 12.7393 16.7586L14.8967 18.8969C15.5008 19.4756 15.828 20.0543 15.8784 20.633C15.9287 21.2117 15.7022 21.7974 15.1988 22.3902L15.4361 22.6231C16.6299 21.6492 17.8452 21.7692 19.0822 22.983L21.4985 25.3542C22.1458 25.9893 22.7355 26.3034 23.2676 26.2963C23.7998 26.2893 24.4039 25.954 25.0799 25.2907L25.4682 24.9096L27 26.4339L26.288 27.1537C25.0943 28.3252 23.976 28.9392 22.9332 28.9957C21.8905 29.0521 20.8297 28.5581 19.751 27.5137L17.7014 25.4812C17.2699 25.0578 16.8852 24.7649 16.5472 24.6026C16.2092 24.4403 15.882 24.4085 15.5655 24.5073C15.2491 24.6061 14.9111 24.832 14.5515 25.1848L14.53 25.1636C14.2567 25.3895 13.9367 25.4989 13.5699 25.4918C13.2031 25.4847 12.8903 25.3542 12.6314 25.1001C12.3725 24.8461 12.2395 24.5391 12.2323 24.1792C12.2251 23.8193 12.3366 23.5052 12.5667 23.237C13.0989 22.7148 13.3398 22.2279 13.2894 21.7762C13.2391 21.3246 12.8903 20.7741 12.2431 20.1249L10.474 18.3888C9.42402 17.3585 8.935 16.3422 9.00692 15.3401C9.07883 14.338 9.71168 13.2512 10.9055 12.0797ZM21.3799 14.5991C21.6459 14.331 21.9803 14.1969 22.3831 14.1969C22.757 14.211 23.077 14.3486 23.3431 14.6097C23.6092 14.8708 23.7423 15.1884 23.7423 15.5624C23.7423 15.9365 23.6056 16.2576 23.3323 16.5257C23.0591 16.7939 22.7319 16.928 22.3507 16.928C21.9696 16.928 21.6459 16.7939 21.3799 16.5257C21.1138 16.2576 20.9807 15.9365 20.9807 15.5624C20.9807 15.1884 21.1138 14.8673 21.3799 14.5991ZM18.1113 17.796C18.3846 17.5278 18.7154 17.3938 19.1038 17.3938C19.4777 17.4079 19.8013 17.5455 20.0746 17.8066C20.3479 18.0677 20.4845 18.3853 20.4845 18.7593C20.4845 19.1333 20.3479 19.4544 20.0746 19.7226C19.8013 19.9908 19.4741 20.1249 19.093 20.1249C18.7118 20.1249 18.3846 19.9908 18.1113 19.7226C17.8381 19.4544 17.7014 19.1333 17.7014 18.7593C17.7014 18.3853 17.8381 18.0642 18.1113 17.796Z" />
</svg>
