<svg width="241" height="119" viewBox="0 0 241 119" xmlns="http://www.w3.org/2000/svg">
<path fill-rule="evenodd" clip-rule="evenodd" d="M148.357 9.13233C148.645 9.091 148.934 9.09101 149.511 9.04968C149.305 9.42159 149.222 9.66952 149.098 9.91746C148.81 9.75217 148.522 9.54555 148.274 9.38026C148.274 9.2563 148.315 9.21497 148.357 9.13233Z"/>
<path fill-rule="evenodd" clip-rule="evenodd" d="M81.5117 54.9177C82.0062 54.2152 82.2535 53.2235 83.5723 53.5541C83.531 53.4301 83.4898 53.3474 83.4486 53.2235C83.2013 53.1821 82.9541 53.0995 82.6244 53.0582C82.6244 52.8929 82.6244 52.5623 82.6656 52.521C83.3662 52.2731 83.1189 51.6945 83.1601 51.1987C83.2014 50.9921 83.2426 50.7441 83.3662 50.6202C84.108 50.1243 83.9844 49.2978 84.2316 48.6367C84.4377 48.0995 84.891 47.6036 85.2619 47.0664C85.2207 47.0664 85.0559 46.9838 84.8498 46.9011C84.6438 46.24 85.6328 45.0003 86.251 44.9176C86.9104 44.835 87.3637 45.2482 87.8995 45.4962C88.2704 45.6614 88.5588 46.9424 88.3528 47.3557C87.9407 48.3061 88.0231 49.3391 87.9407 50.3309C87.9407 50.5375 87.9407 50.7441 87.8995 50.9094C87.7346 51.6532 87.5286 52.397 87.4049 53.1408C87.2401 54.0086 87.1989 54.8764 87.0752 55.7441C86.9928 56.3227 86.8692 56.9012 86.7867 57.4797C86.7455 57.9342 87.2813 58.3061 87.7346 58.1408C88.3528 57.8929 88.8061 57.521 88.971 56.8599C89.0534 56.6119 89.2594 56.4053 89.4243 56.1987C89.5891 55.9508 89.7952 55.7441 89.96 55.4962C90.2485 55.0003 90.537 54.4631 90.8255 53.926C90.9079 53.7607 91.114 53.6367 91.114 53.4714C91.0727 52.1491 92.103 51.3639 92.5564 50.2896C92.8036 49.711 93.3394 49.2152 93.3394 48.678C93.3394 47.8929 93.9988 47.9342 94.2048 47.521C94.3284 47.1904 94.4521 46.8185 94.5757 46.4879C94.6993 46.0333 94.9466 45.5375 94.9466 45.0829C94.9466 43.7193 95.5236 42.6036 96.1005 41.4465C96.1418 41.3226 96.3066 41.2813 96.389 41.1986C96.966 40.868 98.9441 41.1986 99.4799 41.8184C99.1502 42.6036 98.5732 43.43 98.532 44.2978C98.4908 45.3722 97.6666 46.5705 98.7381 47.5623C98.6144 48.5953 99.315 49.3391 99.7271 50.1656C99.892 50.4549 100.057 50.7441 100.304 51.1987C100.716 51.0334 101.211 50.8268 101.747 50.6615C102.653 50.3722 103.601 50.1243 104.508 49.835C104.755 49.7524 105.002 49.5458 105.249 49.4631C106.774 48.9259 108.299 48.3474 109.824 47.8929C110.071 47.8102 110.483 48.0582 110.772 48.2234C110.978 48.3061 111.143 48.4714 111.39 48.678C111.308 48.7606 111.184 48.9672 111.06 49.0499C110.689 49.2978 110.236 49.4218 109.906 49.7524C109.535 50.1243 109.123 50.2483 108.588 50.2483C108.423 50.2483 108.217 50.2896 108.052 50.3722C106.527 50.9921 105.043 51.6119 103.519 52.2731C103.395 52.3144 103.189 52.3557 103.106 52.4383C102.818 52.8102 102.571 52.8102 102.2 52.4797C102.076 52.3557 101.788 52.397 101.582 52.3557C101.623 52.7689 101.582 53.0995 101.664 53.4301C101.747 53.802 101.953 54.1326 102.159 54.4631C102.612 55.2069 103.148 55.9094 103.642 56.6119C103.725 56.7359 103.807 56.8185 103.89 56.9012C104.673 57.8516 105.456 58.802 106.239 59.7524C106.321 59.8351 106.403 59.8764 106.486 59.959C106.816 60.2483 107.145 60.4549 107.434 60.7855C108.546 62.1491 109.577 63.5541 110.648 64.9178C110.772 65.083 110.978 65.2483 111.143 65.4136C111.761 66.2401 112.379 67.0252 112.915 67.8516C112.997 67.9756 112.791 68.3062 112.709 68.5128C112.461 69.0087 112.214 69.5045 111.967 70.0004C112.008 70.0831 112.049 70.1657 112.091 70.2484C111.472 70.2897 110.895 70.3723 110.277 70.4136C109.206 70.5376 108.176 70.6616 107.104 70.7855C106.692 70.8269 106.362 71.0335 105.991 70.5789C105.826 70.3723 105.249 70.4136 104.879 70.3723C104.343 70.331 103.766 70.2897 103.189 70.2484C102.406 70.1657 101.623 70.0004 100.881 70.0004C100.222 70.0004 99.8096 69.4632 98.9853 69.6698C98.0787 69.9178 96.966 69.2979 95.9357 69.0087C95.7296 68.9674 95.5236 68.7607 95.1527 68.5128C94.4521 68.7194 93.5454 68.8021 92.9273 67.8516C91.4436 68.5541 90.2485 67.4384 88.971 66.9839C88.4764 66.7773 88.0231 66.612 87.5286 66.4054C87.3225 65.9921 87.034 65.4963 86.7867 64.9591C86.7043 65.0004 86.5807 65.0004 86.4983 65.0417C86.4983 65.4136 86.4983 65.7855 86.4983 66.0748C85.5916 65.4549 85.5916 65.4549 85.7153 65.0004C85.5916 65.0004 85.468 65.0004 85.3443 65.0004C85.2207 65.0417 85.0971 65.083 84.9734 65.1657C83.8607 63.7194 84.0256 62.0665 84.1492 60.4136C84.2316 59.4218 84.1904 58.3888 84.1492 57.397C84.1492 57.3557 84.0256 57.3144 83.9432 57.2318C83.4074 57.8929 82.8305 58.5128 82.3359 59.2152C81.8826 59.8764 80.605 60.2896 79.8632 59.8764C79.2863 59.5458 78.7917 59.0499 78.2148 58.678C78.0499 58.5954 77.7202 58.5541 77.6378 58.678C77.1433 59.2152 76.6899 59.8351 76.2366 60.4136C76.113 60.5376 75.9893 60.7442 75.8657 60.7442C74.8766 60.8268 73.8876 60.8681 72.8985 60.8268C72.7336 60.8268 72.5276 60.5376 72.3627 60.3723C72.61 60.2483 72.8161 60.083 73.0633 60.0417C73.2694 60.0004 73.5167 60.083 73.7227 60.0417C73.2694 59.4218 72.6924 59.2152 71.9506 59.5045C71.9506 59.7111 71.9506 59.9177 71.9506 60.1657C70.9615 59.9177 71.3737 58.3888 70.1785 58.3475C69.107 59.7524 68.0355 61.1574 66.9228 62.521C66.6756 62.8103 66.1398 62.8516 65.7689 63.0582C64.615 63.5954 63.3786 64.1326 62.1423 63.5128C61.1944 63.0582 60.329 62.3971 59.9169 61.364C59.8757 61.24 59.8345 61.0747 59.7108 61.0334C58.9278 60.6615 58.969 59.9177 59.0102 59.2152C59.0102 58.5128 58.9278 57.8516 58.969 57.1491C58.969 56.4053 59.0514 55.6202 59.1339 54.835C59.5048 54.835 59.752 54.835 59.9993 54.835C60.0405 54.7524 60.0405 54.7111 60.0817 54.6284C59.8345 54.4631 59.546 54.3392 59.1339 54.0912C59.546 53.4301 59.9993 52.7689 60.3702 52.0664C60.535 51.7772 60.3702 51.3226 60.5351 50.9921C60.9472 50.1243 61.4005 49.2565 61.895 48.3887C62.472 47.397 62.6368 47.3557 63.832 47.6862C63.2962 46.3639 64.5738 46.116 65.0271 45.4135C65.7277 44.3391 66.7992 44.5871 67.6234 44.5457C68.6537 44.5457 69.9725 44.6284 70.3846 45.9507C70.7143 46.9838 71.0028 48.0168 71.2912 49.0912C71.9918 48.4714 72.1567 47.5623 72.1567 46.6119C72.1979 45.3722 73.8464 44.4631 74.8766 45.1243C75.4124 45.4548 75.5772 46.9011 75.2475 47.6862C74.8354 48.678 74.3409 49.6697 74.2997 50.8268C74.2173 52.0664 73.8876 53.3061 73.6403 54.5458C73.5167 55.2896 73.7227 56.0334 73.3106 56.7772C73.187 57.0251 73.5579 57.645 73.8051 58.0169C73.8876 58.1409 74.3821 57.9756 74.6706 57.9342C74.753 57.9342 74.8766 57.8103 74.8766 57.7276C75.2888 56.5293 75.7009 55.2896 76.1542 54.0912C76.2366 53.802 76.5251 53.5954 76.6487 53.3474C77.1021 52.2317 77.5966 51.116 77.9675 50.0003C78.3384 48.8846 78.8742 47.8515 79.0802 46.6532C79.2451 45.6201 79.5335 44.4218 80.7287 43.9259C80.8935 43.8432 81.0996 43.8019 81.2644 43.8433C82.0062 44.0912 82.5832 44.5871 82.8717 45.3309C82.7068 45.4135 82.4595 45.4548 82.4595 45.5788C82.2535 46.4466 82.1299 47.3557 81.965 48.2234C81.6765 49.5871 81.2644 50.9094 81.0584 52.3144C80.9347 53.0995 81.0996 53.9673 81.1408 54.7937C81.3056 54.9177 81.3881 54.9177 81.5117 54.9177ZM104.219 60.083C103.56 60.2483 103.23 60.0417 102.9 59.5871C102.447 58.9673 101.829 58.5127 101.334 57.9342C100.84 57.3557 100.428 56.6946 100.057 56.0334C99.7684 55.4962 98.7793 54.8764 98.1611 55.0003C97.2545 55.1656 96.5539 55.6202 95.8121 56.1987C94.246 57.397 92.5564 58.4301 90.9491 59.5458C90.7431 59.7111 90.5782 59.959 90.4134 60.1657C89.6716 61.1987 89.3419 62.6037 88.0643 63.2649C87.6522 63.4715 87.5698 63.8847 88.0643 64.1739C88.9297 64.6285 89.6716 65.331 90.7431 65.4963C92.4327 65.7855 94.0812 66.3227 95.7709 66.6946C96.5951 66.9012 97.4605 66.9426 98.326 67.1078C99.315 67.3145 100.263 67.645 101.252 67.893C102.241 68.0996 103.23 68.2236 104.219 68.3888C104.508 68.4302 104.796 68.7194 105.085 68.7194C106.321 68.6368 107.557 68.5128 108.794 68.3475C109 68.3062 109.412 68.0996 109.412 68.0169C109.412 67.769 109.206 67.5624 109.082 67.3145C108.959 67.1492 108.876 66.9839 108.752 66.8186C108.34 66.1987 107.969 65.4963 107.434 65.0004C106.033 63.7194 104.879 62.3144 103.848 60.8681C103.972 60.4962 104.096 60.2896 104.219 60.083ZM63.0902 61.5706C63.7908 61.1987 64.4913 60.9508 65.1095 60.5376C65.6041 60.207 66.0162 59.7524 66.4695 59.2979C66.8404 58.926 67.2525 58.5954 67.541 58.1822C67.9119 57.645 68.1592 57.0665 68.4476 56.4879C68.6537 56.116 68.5713 55.7855 68.118 55.7441C67.5822 55.7028 67.5822 55.4549 67.7883 55.083C67.8707 54.959 67.8295 54.7524 67.8707 54.5871C67.9943 54.2565 68.118 53.8846 68.2416 53.5541C68.2828 53.5541 68.324 53.5954 68.324 53.5954C68.3652 52.6036 68.4477 51.6119 68.4889 50.5375C68.7361 50.5788 68.901 50.6201 69.0246 50.5788C69.1482 50.5375 69.2719 50.3722 69.3955 50.2896C69.2719 50.2069 69.1482 50.0416 69.0658 50.0829C68.1592 50.2482 68.2828 49.6697 68.324 49.1325C68.324 48.802 68.4064 48.5127 68.4064 48.1821C68.4064 47.1491 67.5822 46.6532 66.7168 47.1491C66.3459 47.3557 66.0162 47.6862 65.7277 47.9755C65.1919 48.4714 64.5326 48.8846 64.2029 49.5044C63.6259 50.4962 63.255 51.5706 62.8429 52.6036C62.5132 53.3888 62.1835 54.1739 61.895 54.959C61.8538 55.0417 61.8538 55.1656 61.8126 55.2483C61.8126 56.1574 61.7302 57.1078 61.8538 58.0169C61.9774 58.926 61.5653 60.1243 62.8017 60.6615C62.8841 60.7855 62.9253 61.1161 63.0902 61.5706ZM93.1745 54.6698C93.257 54.7111 93.2982 54.7524 93.3806 54.7937C94.246 54.2565 95.1115 53.7193 96.0181 53.2235C96.8011 52.7689 97.6254 52.3557 97.0896 51.1987C96.966 50.8681 97.0072 50.4135 96.8423 50.1656C96.5951 49.8763 96.1418 49.5871 95.8121 49.6284C95.5236 49.6697 95.3175 50.2069 95.0703 50.5375C94.9878 50.6615 95.0291 50.8681 94.9466 50.9921C94.4109 52.0251 93.8339 53.0169 93.2982 54.0499C93.2157 54.2152 93.2157 54.4631 93.1745 54.6698Z"/>
<path fill-rule="evenodd" clip-rule="evenodd" d="M211.039 60.7441C211.039 60.7441 210.998 60.868 210.998 61.0747C210.009 60.9507 209.02 60.868 208.031 60.7028C207.742 60.6614 207.495 60.3722 207.207 60.2895C206.918 60.2069 206.63 60.2069 206.341 60.1242C205.187 59.835 204.075 59.587 203.044 59.0085C202.344 58.5953 201.396 58.6366 200.572 58.3887C200.118 58.2647 199.706 57.9755 199.253 57.8102C199.088 57.7275 198.882 57.7275 198.676 57.6862C198.346 57.6449 198.016 57.5622 197.687 57.6036C197.398 57.6036 197.069 57.6862 196.821 57.7689C196.203 57.9755 195.626 58.2647 195.049 58.4713C194.967 58.5127 194.802 58.306 194.678 58.1821C193.648 58.8432 192.453 59.1325 191.299 58.8846C190.722 58.7606 190.021 58.2234 189.857 57.397C189.733 56.8184 189.28 56.3639 188.661 56.3639C188.126 56.3226 187.59 56.3639 187.095 56.4879C185.859 56.8184 184.87 56.116 183.798 55.7441C183.757 55.7441 183.675 55.7027 183.675 55.6614C183.551 54.8763 182.933 54.8763 182.232 54.8349C182.397 54.587 182.521 54.4217 182.603 54.2564C182.15 53.9672 181.697 53.7192 181.202 53.3887C181.243 53.0581 181.285 52.7688 181.367 52.3556C180.708 52.6035 180.337 52.6449 180.254 51.7771C180.213 51.2812 179.595 50.868 179.224 50.4134C179.018 50.1242 178.812 49.7936 178.688 49.463C178.482 48.8845 177.988 48.5539 177.534 48.6366C177.37 50.4134 177.617 52.2316 176.793 53.9672C177.163 54.4217 177.328 54.9176 176.628 55.3722C176.504 55.4548 176.504 55.7441 176.463 55.9507C176.38 56.2812 176.298 56.5705 176.216 56.9011C176.174 56.9837 176.133 57.0664 176.133 57.1903C176.092 57.7689 176.01 58.3887 175.968 58.9672C175.886 59.0085 175.803 59.0499 175.762 59.0499C175.597 58.678 175.391 58.306 175.185 57.8102C174.979 58.1821 174.773 58.554 174.526 59.0499C174.897 59.0499 175.062 59.0085 175.227 59.0499C175.845 59.1325 175.968 59.4631 175.762 60.0416C174.979 62.0251 174.196 64.0086 173.454 65.992C173.207 66.6532 173.084 67.3557 172.836 68.0169C172.795 68.1408 172.63 68.2235 172.507 68.3474C172.383 68.4714 172.177 68.554 172.094 68.678C171.724 69.835 170.817 70.4549 169.869 71.0334C169.086 71.4879 168.385 71.2813 167.726 70.9921C167.19 70.7855 166.696 70.2483 166.407 69.7524C166.16 69.3392 166.242 68.7607 166.16 68.2235C166.119 68.2648 166.078 68.3474 165.913 68.554C165.707 67.8102 165.542 67.1078 165.336 66.4879C165.047 65.6201 164.553 65.3309 163.605 65.4135C163.605 65.7854 163.729 66.3639 163.564 66.4466C163.234 66.6532 162.739 66.6532 162.286 66.7359C161.586 66.8598 161.009 66.5292 160.39 66.1987C159.607 65.7854 158.577 66.5292 158.453 67.6036C157.876 67.4383 157.341 67.3144 156.764 67.1491C156.764 67.0664 156.723 66.9838 156.723 66.9425C157.918 66.6532 157.712 65.4962 158.083 64.711C158.495 63.802 158.742 62.7689 158.948 61.7771C159.154 60.7028 159.195 59.5871 159.236 58.5127C159.278 57.5622 159.278 56.6118 159.319 55.6614C159.319 55.4961 159.278 55.2895 159.236 55.1242C158.948 54.3804 159.401 53.4713 160.308 53.306C161.503 53.0994 162.204 53.3474 162.327 54.1738C162.369 54.6283 162.327 55.0829 162.369 55.5788C162.369 55.868 162.41 56.1986 162.451 56.4879C162.451 56.6118 162.575 56.7771 162.533 56.8598C161.586 58.0168 162.451 59.3804 162.245 60.6201C162.08 61.5705 162.204 62.5623 162.204 63.554C162.286 63.5953 162.369 63.6367 162.451 63.678C162.781 63.3887 163.193 63.1408 163.358 62.8102C163.852 61.8598 164.264 60.8267 164.635 59.835C164.882 59.2151 165.006 58.5127 165.212 57.8515C165.542 56.8184 165.913 55.8267 166.242 54.7936C166.325 54.5044 166.366 54.1738 166.49 53.8845C166.613 53.554 166.325 53.0168 166.984 52.8928C167.067 52.8928 167.108 52.4383 167.149 52.1077C167.85 52.1903 168.55 52.2316 169.21 52.3556C169.869 52.5209 170.116 53.5126 169.787 54.0911C169.498 54.6283 169.416 55.2895 169.21 55.868C169.045 56.3226 168.756 56.7771 168.55 57.149C168.55 57.5209 168.591 57.9342 168.55 58.3061C168.385 59.0499 168.179 59.835 168.015 60.5788C167.973 60.6614 167.932 60.7854 167.973 60.868C168.221 61.9011 168.015 62.8929 167.932 63.8846C167.891 64.5458 168.097 65.2482 168.179 65.9507C168.179 66.0334 168.262 66.1987 168.221 66.24C167.644 67.1904 168.509 67.645 168.921 68.2235C170.158 68.0169 170.322 66.9011 170.734 66.0747C171.394 64.7937 171.93 63.4714 172.424 62.1077C172.795 61.1986 173.042 60.2482 173.372 59.3391C173.619 58.6366 173.908 57.9342 174.031 57.2317C174.114 56.5705 174.073 55.9093 174.65 55.4135C174.732 55.3308 174.773 55.1655 174.732 55.0829C174.526 54.6283 174.814 54.5044 175.185 54.3804C175.68 54.2151 175.68 54.2151 175.35 53.7192C175.144 53.8845 174.979 54.0912 174.65 54.3804C175.062 52.6449 175.391 51.1159 175.721 49.6696C176.174 49.3804 176.586 49.0911 177.122 48.7605C176.628 48.3473 176.257 47.9754 175.803 47.5622C175.886 47.025 176.01 46.4465 176.133 45.9093C176.463 44.463 176.422 43.058 175.968 41.6531C175.721 40.9093 175.515 40.1655 175.391 39.4216C175.185 38.0167 174.856 36.5704 174.979 35.2068C175.103 34.0084 174.114 33.058 174.691 31.777C174.979 31.777 175.35 31.7357 175.721 31.7357C175.474 31.2811 174.031 30.8266 173.66 31.1985C173.125 31.777 172.671 31.4464 172.177 31.1985C171.435 32.1076 170.364 32.2315 169.333 32.5621C168.756 32.7274 168.221 33.1406 167.602 32.4381C167.52 32.81 167.52 33.0167 167.438 33.2646C167.149 33.3059 166.861 33.3059 166.572 33.4299C165.789 33.7605 165.047 34.215 164.182 34.4216C163.11 34.6696 162.121 35.4547 161.091 35.9506C160.102 36.4051 159.195 37.1489 158 37.2316C157.876 37.2316 157.712 37.3555 157.629 37.4795C157.3 38.0167 157.011 38.5952 156.64 39.0911C156.558 39.215 156.228 39.1737 155.94 39.215C155.775 39.7109 155.775 40.5787 155.363 41.0332C154.456 42.025 154.992 42.9341 155.239 43.8845C154.58 44.1324 154.538 44.0911 153.838 42.8927C153.59 43.306 153.426 43.6365 153.261 43.9671C153.302 43.2233 152.066 42.7274 152.725 41.777C153.137 41.901 153.59 42.025 154.003 42.1903C154.044 42.0663 154.085 41.9836 154.126 41.8597C153.714 41.6944 153.302 41.4878 152.89 41.2812C152.89 40.1655 153.632 39.3803 154.25 38.5539C154.95 37.6448 155.857 36.8597 156.681 36.0332C156.805 35.9092 156.887 35.7439 157.011 35.7439C158.124 35.5373 158.742 34.4216 160.019 34.215C161.297 34.0084 162.451 33.1406 163.687 32.6448C164.553 32.3142 165.501 32.1489 166.366 31.8596C166.613 31.777 166.819 31.4877 167.149 31.2398C167.644 31.2398 168.262 31.2398 168.921 31.2398C169.045 31.2398 169.21 31.2398 169.292 31.1571C170.116 30.1654 171.229 30.1654 172.383 30.0414C173.496 29.9175 174.402 28.5951 174.32 27.4794C174.237 26.1984 174.361 24.9174 174.361 23.6364C174.361 23.1406 174.32 22.6447 174.279 22.1488C174.196 21.1571 174.155 20.2067 174.567 19.2562C174.814 18.7191 174.691 18.0166 174.732 17.3554C174.814 16.4463 174.897 15.5372 174.938 14.6281C174.979 13.7603 175.02 12.9339 175.103 11.9422C175.927 11.9422 176.71 11.7355 177.163 11.9835C177.699 12.3141 178.07 13.0579 178.235 13.6777C178.359 14.1323 178.771 14.7521 178.359 15.2066C178.359 16.8182 179.306 18.2645 179.018 20.0001C178.853 20.9091 179.183 21.9009 179.224 22.8513C179.306 24.3802 179.306 25.9505 179.348 27.4794C179.389 28.0993 179.554 28.4712 180.337 28.1406C180.708 27.9753 181.161 27.9753 181.573 28.0579C181.903 28.1406 182.232 28.4299 182.562 28.5951C182.521 28.6778 182.521 28.7604 182.48 28.8844C181.944 28.967 181.408 29.0084 180.914 29.091C179.883 29.2563 179.224 30.248 179.306 31.2398C179.348 31.6943 179.059 32.2728 179.265 32.6034C179.719 33.3059 179.224 33.9671 179.43 34.7109C179.636 35.496 179.471 36.3638 179.43 37.1902C179.348 38.9671 179.142 40.7026 179.142 42.4795C179.142 43.306 179.142 44.1737 179.801 44.8762C180.089 45.1655 180.089 45.7027 180.254 46.1159C180.378 46.4052 180.419 46.8184 180.625 46.9837C181.449 47.6035 181.12 48.5126 181.285 49.2564C181.326 49.463 181.326 49.711 181.326 49.9589C182.397 49.9589 182.48 50.0415 182.356 50.6614C183.098 51.4052 183.799 51.9837 184.375 52.6862C184.994 53.3887 186.148 53.6779 186.972 53.2647C187.137 53.1821 187.384 53.1407 187.59 53.1407C188.414 53.0994 189.238 53.0168 190.063 53.0168C190.31 53.0168 190.64 53.1821 190.846 53.3474C191.423 53.8845 191.958 54.463 192.453 55.0416C192.577 55.1655 192.577 55.4135 192.659 55.7854C193.401 55.6614 194.143 55.5374 194.926 55.3722C196.203 55.0829 197.44 54.7936 198.676 54.5457C198.882 54.5044 199.129 54.5457 199.335 54.6283C200.036 54.9176 200.736 55.2895 201.437 55.5788C201.808 55.7441 202.261 55.7027 202.632 55.8267C203.91 56.3226 205.187 56.9424 206.506 57.4383C206.959 57.6036 207.578 57.397 207.948 57.6449C209.226 58.4713 210.668 58.0168 211.987 58.3887C212.399 58.5127 212.77 58.7606 213.141 58.9672C213.306 59.0499 213.471 59.2151 213.594 59.1325C214.46 58.8019 215.284 59.0912 216.149 59.2151C216.974 59.3391 217.839 59.3391 218.705 59.3804C220.065 59.5044 221.383 59.6284 222.743 59.711C223.65 59.7523 224.515 59.6284 225.422 59.6697C226.205 59.6697 226.947 59.835 227.73 59.835C228.513 59.835 229.255 59.711 230.038 59.6697C231.027 59.6284 231.975 59.6284 232.964 59.5457C234.2 59.4218 235.395 59.2151 236.632 59.0912C237.456 59.0085 238.321 59.1738 239.104 58.9672C240.011 58.7606 240.382 59.2978 241 59.7937C240.753 60.0003 240.588 60.2895 240.341 60.3722C239.516 60.5375 238.651 60.6614 237.786 60.7854C237.291 60.8681 236.838 60.992 236.343 61.116C235.478 61.3639 234.612 61.6532 234.035 60.4135C233.994 60.4961 233.953 60.5788 233.912 60.6614C233.994 60.868 234.076 61.0747 234.159 61.2813C233.623 61.3226 233.129 61.3639 232.634 61.4052C232.016 61.4466 231.357 61.4879 230.738 61.5705C230.244 61.6532 229.79 61.8185 229.337 61.8598C229.007 61.9011 228.637 61.7358 228.183 61.6532C227.977 61.6945 227.648 61.7771 227.318 61.7771C226.329 61.8185 225.422 62.273 224.351 62.0251C223.774 61.9011 223.197 61.7358 222.62 61.6532C221.919 61.5292 221.177 61.8185 220.477 61.8598C219.735 61.9011 218.993 61.9424 218.251 61.8598C217.509 61.7771 216.768 61.5705 216.067 61.4052C215.82 61.3639 215.614 61.2813 215.366 61.2813C214.542 61.2813 213.718 61.3639 212.894 61.2813C212.028 61.3226 211.534 60.992 211.039 60.7441ZM176.628 26.0745C176.092 26.7356 176.133 27.4381 176.71 28.1819C176.999 27.4794 177.37 26.8183 176.628 26.0745ZM176.751 32.1902C177.328 31.653 177.205 30.9918 176.422 30.4133C176.504 30.9505 176.628 31.4877 176.751 32.1902ZM176.504 25.7026C176.628 25.7026 176.751 25.7026 176.875 25.7026C176.834 25.2067 176.834 24.7108 176.793 24.215C176.71 24.215 176.586 24.215 176.504 24.215C176.504 24.7108 176.504 25.2067 176.504 25.7026Z"/>
<path fill-rule="evenodd" clip-rule="evenodd" d="M146.461 76.8186C145.843 76.3227 145.884 75.6202 145.719 74.9591C145.348 73.2649 145.06 71.5706 144.895 69.8351C144.648 67.769 143.988 65.7855 144.318 63.6367C144.4 63.0169 143.947 62.3557 144.029 61.7359C144.153 60.3309 143.823 59.0086 143.741 57.6449C143.7 57.1491 143.782 56.6532 143.741 56.1573C143.617 54.835 143.988 53.5127 143.7 52.1904C143.535 51.3639 143.7 50.4548 143.741 49.5871C143.741 48.5127 143.741 47.4383 143.741 46.2812C144.277 46.4465 144.812 46.5705 145.348 46.6945C145.389 46.6118 145.389 46.5292 145.431 46.4879C145.101 46.3226 144.771 46.1573 144.442 46.0746C144.071 45.9507 143.865 45.8267 143.947 45.2895C144.029 44.835 143.823 44.3391 143.7 43.8432C143.576 43.3473 143.782 43.1407 144.318 43.0994C144.648 43.0994 144.936 42.9754 145.266 42.7275C144.854 42.6449 144.4 42.5622 143.947 42.4796C143.906 42.3143 143.947 42.025 143.823 41.9424C143.659 41.8597 143.205 41.8184 143.164 41.9424C142.834 42.5622 142.546 43.2234 142.299 43.8845C142.257 44.0085 142.175 44.1325 142.216 44.2564C142.257 44.711 142.505 45.2069 141.639 45.1655C141.474 45.1655 141.145 45.8267 141.062 46.2399C140.939 46.7358 140.444 48.5953 140.238 48.9672C140.114 49.1325 140.114 49.3391 139.991 49.5457C139.826 49.7937 139.62 50.0416 139.29 50.4135C139.249 51.116 138.672 51.7771 138.177 52.521C138.095 52.6449 137.889 52.7276 137.889 52.8515C137.807 54.2978 136.57 55.083 135.952 56.24C135.499 57.0664 135.045 57.8929 134.551 58.678C133.933 59.6698 133.273 60.6615 132.614 61.6532C132.449 61.9425 132.367 62.2317 132.119 62.8103C131.996 62.4797 131.954 62.2731 131.872 62.0251C131.79 62.0665 131.707 62.1078 131.625 62.1491C132.037 63.4301 131.007 64.1739 130.471 65.0417C129.688 66.3227 128.74 67.5624 127.669 68.5954C127.092 69.1739 126.473 70.083 125.361 69.8764C124.866 70.7442 124.289 70.9508 123.424 70.4136C122.764 70.0004 122.187 69.4632 121.61 68.926C121.528 68.8433 121.569 68.5954 121.528 68.4301C121.487 68.2235 121.404 68.0169 121.322 67.8103C121.281 67.6863 121.116 67.6037 121.116 67.4797C121.157 66.7772 121.198 66.0747 121.281 65.3723C121.281 65.207 121.404 64.959 121.322 64.8351C120.58 63.5954 120.869 62.1904 120.663 60.9094C120.539 60.0003 120.869 59.0086 120.951 58.0582C121.075 56.6119 121.322 55.1656 121.033 53.678C120.91 52.9755 121.198 52.1904 121.281 51.4466C121.322 51.116 121.24 50.8267 121.24 50.4961C121.116 50.4961 120.992 50.4961 120.91 50.4961C120.745 51.2813 120.58 52.0251 120.415 52.8102C120.374 52.8928 120.415 53.0168 120.374 53.0995C120.003 53.7606 119.55 54.3391 119.509 55.1656C119.467 55.5375 119.261 55.9507 118.684 55.9094C118.52 55.9094 118.355 56.2813 118.19 56.4879C117.448 57.1904 116.706 56.9425 116.047 56.4879C116.171 56.0747 116.294 55.6615 116.418 55.2482C118.107 53.8433 118.272 51.7358 118.643 49.7523C118.643 49.6697 118.643 49.5457 118.684 49.5044C119.509 48.7606 119.303 47.6449 119.715 46.7358C119.756 46.6531 119.88 46.5705 119.962 46.4879C120.086 46.3226 120.374 46.116 120.333 45.9507C120.292 44.7523 121.033 43.9259 121.569 43.0168C121.899 42.3969 122.105 41.7358 122.352 41.0333C122.764 39.8762 123.176 38.7192 123.547 37.5622C123.753 36.9423 123.836 36.2812 124.001 35.6613C124.248 34.6283 124.578 33.6365 124.825 32.6035C124.907 32.2316 124.825 31.8597 124.825 31.4878C125.072 31.3638 125.278 31.2812 125.649 31.1159C124.701 30.6613 124.99 30.0002 125.196 29.4216C125.319 29.0497 125.443 28.6778 125.567 28.3473C125.732 27.8927 125.938 27.4382 126.02 26.9423C126.144 26.4051 126.102 25.8679 126.226 25.3307C126.515 24.1324 126.844 22.9753 127.174 21.777C127.339 21.1571 127.462 20.5373 127.71 19.9588C127.875 19.5456 128.039 19.0084 128.74 19.1323C128.946 19.1737 129.193 19.091 129.399 19.091C130.512 19.1323 130.347 19.1737 130.553 20.248C130.801 21.6943 130.059 22.8927 129.894 24.215C129.729 25.2481 129.482 26.2398 129.235 27.2316C129.152 27.5208 128.987 27.8101 128.905 28.0993C128.74 28.8018 128.658 29.5043 128.493 30.2068C128.245 31.2398 127.957 32.2316 127.71 33.2646C127.462 34.339 127.256 35.4547 127.009 36.5291C126.885 37.025 126.679 37.5209 126.556 37.9754C126.391 38.5126 126.267 39.0498 126.102 39.587C125.896 40.3308 125.69 41.0333 125.443 41.7358C125.278 42.149 125.526 42.7275 124.907 42.9341C124.866 42.9341 124.866 43.306 124.907 43.43C125.196 44.0911 124.949 44.6283 124.536 44.9589C124.536 45.5374 124.536 46.0333 124.536 46.5292C123.918 46.4879 123.63 46.8598 123.877 47.397C124.166 48.0168 123.877 48.306 123.383 48.6366C124.536 49.0912 123.836 50.0003 123.836 50.7028C123.836 51.5292 123.671 52.3143 123.589 53.1408C123.547 53.3474 123.589 53.6367 123.506 53.7193C123.094 53.9672 122.888 54.1325 123.506 54.3805C123.589 54.4218 123.589 54.5871 123.589 54.711C123.589 55.7028 123.589 56.6945 123.589 57.7276C123.218 57.6863 123.053 57.6863 122.682 57.6449C122.97 58.0582 123.176 58.3474 123.424 58.6367C123.259 58.7607 123.053 58.8846 122.806 59.0499C122.806 59.0912 122.847 59.1325 122.847 59.1739C123.053 59.1325 123.218 59.0499 123.506 58.9673C123.506 60.0416 123.506 61.0747 123.506 62.1078C123.506 62.2317 123.547 62.3144 123.506 62.4384C123.176 63.4301 123.465 64.3805 123.753 65.3309C123.918 65.9508 123.918 66.6119 124.083 67.2318C124.166 67.4797 124.372 67.769 124.578 67.9343C124.701 68.0169 125.031 67.8103 125.196 67.645C126.185 66.488 127.174 65.3309 128.122 64.1739C128.287 63.9673 128.287 63.5954 128.452 63.4301C128.781 62.8929 129.111 62.3557 129.441 61.8598C129.605 61.5706 129.77 61.2813 129.976 60.9921C130.471 60.2483 130.965 59.5045 131.46 58.802C131.872 58.2235 132.325 57.6863 132.82 57.0664C132.902 56.9011 132.944 56.5706 133.108 56.3639C133.603 55.7028 134.221 55.1656 134.674 54.4631C134.881 54.1325 134.798 53.6367 134.839 53.1408C135.375 53.0581 135.705 52.7276 135.705 52.0664C135.705 51.9011 135.87 51.6945 135.993 51.5292C136.529 50.6201 137.065 49.711 137.6 48.8019C138.136 47.8515 138.672 46.9424 139.125 45.9507C139.455 45.3308 139.661 44.6283 139.95 44.0085C140.485 42.8928 141.062 41.8184 141.557 40.6614C141.886 39.8349 142.093 38.9258 142.422 38.0581C142.628 37.5622 142.958 37.1076 143.246 36.6531C143.288 36.5704 143.411 36.4465 143.411 36.4052C142.999 35.62 143.659 35.1655 143.865 34.587C144.112 33.9258 144.112 33.1407 144.483 32.5622C145.019 31.7357 144.73 30.744 145.06 29.9588C145.595 28.6365 145.595 27.3142 145.802 25.9506C146.008 24.5043 146.131 23.058 146.42 21.6117C146.585 20.7026 146.997 19.7935 147.203 19.1737C147.368 18.3472 147.45 17.7687 147.574 17.1902C147.697 16.6943 147.821 16.1571 148.109 15.7852C148.315 15.5373 148.851 15.4959 149.346 15.3307C149.14 15.124 148.81 14.8761 148.398 14.4629C148.686 13.7191 149.016 12.8513 149.346 11.9835C149.428 11.8182 149.511 11.653 149.552 11.4877C149.758 10.5786 149.881 9.66947 150.17 8.76038C150.623 7.43806 151.159 6.11573 151.736 4.79341C151.86 4.50415 152.272 4.33887 152.684 4.00829C152.437 2.35538 153.22 1.03306 154.744 0C154.868 0.0413225 154.992 0.08264 155.115 0.123963C156.104 0.24793 156.805 0.537192 156.228 1.73555C156.187 1.81819 156.393 1.98348 156.393 2.10745C156.475 2.43803 156.64 2.89258 156.517 3.09919C156.063 3.843 155.94 4.62812 155.898 5.49589C155.898 5.82647 155.363 6.15706 155.198 6.48764C155.115 7.1488 155.033 7.80996 154.909 8.4298C154.909 8.47112 154.497 8.47112 154.332 8.47112C154.827 9.1736 154.703 10.3306 154.126 11.281C153.92 11.653 153.879 12.1075 153.755 12.5207C153.673 12.7687 153.714 13.0992 153.591 13.2645C153.096 13.7191 153.137 14.3802 152.972 14.9174C152.766 15.5786 152.354 16.1984 152.107 16.7356C151.654 16.8596 151.283 16.9422 150.953 17.0249C151.035 17.2728 151.077 17.4794 151.159 17.686C151.365 17.5208 151.489 17.3968 151.612 17.3141C151.695 17.4794 151.86 17.686 151.818 17.81C151.612 18.5125 151.695 19.3389 150.953 19.8761C150.829 19.9588 150.912 20.372 150.747 20.6613C150.706 20.9919 150.623 21.2811 150.582 21.6117C150.541 21.9009 150.582 22.3555 150.417 22.4381C149.881 22.7274 150.005 23.1819 149.881 23.6365C149.758 24.2977 149.387 24.8762 149.14 25.496C149.057 25.6613 149.016 25.8679 148.934 26.0745C148.851 26.4051 148.769 26.7357 148.645 27.0249C148.604 27.5621 148.645 28.1406 148.48 28.6365C148.192 29.6696 147.615 30.6613 147.45 31.7357C147.12 33.5952 146.42 35.4134 146.626 37.3556C146.708 38.5126 146.502 39.6696 146.42 40.8267C146.42 40.992 146.296 41.1986 146.131 41.2812C145.348 41.6531 145.472 42.025 146.09 42.4382C146.172 42.4796 146.214 42.6035 146.296 42.7275C145.678 43.0994 145.76 43.554 145.966 44.1738C146.214 44.8763 146.172 45.7027 146.255 46.4879C146.296 46.8184 146.296 47.149 146.214 47.4796C146.172 47.7275 146.008 47.9341 145.884 48.2234C146.955 48.7193 145.966 49.6697 146.255 50.4548C146.296 50.6201 146.255 50.8267 146.255 51.0333C146.255 51.4466 146.296 51.8185 146.296 52.2317C146.296 53.1408 146.296 54.0499 146.296 54.959C146.296 55.7028 146.214 56.4053 146.214 57.1491C146.214 57.3557 146.296 57.6036 146.379 57.8102C146.461 58.0995 146.543 58.3474 146.543 58.6367C146.585 59.7937 146.585 60.9921 146.667 62.1491C146.791 64.0499 146.955 65.9095 147.12 67.8103C147.162 68.0582 147.285 68.3062 147.285 68.5541C147.326 68.802 147.285 69.0086 147.285 69.2566C147.285 69.4219 147.326 69.5872 147.368 69.7524C147.532 70.7029 147.738 71.612 147.862 72.5624C147.903 72.893 147.738 73.2235 147.615 73.6781C148.027 73.8847 148.151 74.174 148.109 74.8351C148.068 75.331 148.522 75.9508 148.604 76.612C148.769 77.4798 149.057 78.3475 149.181 79.2566C149.263 79.9178 149.181 80.579 149.181 81.2401C149.511 81.9013 149.84 82.5624 150.17 83.2649C150.046 83.4715 149.881 83.7195 149.84 83.8021C150.129 84.0914 150.417 84.2567 150.5 84.4633C150.706 85.0831 150.829 85.7029 150.994 86.3641C150.871 86.6534 150.623 87.0666 150.5 87.4798C150.458 87.6451 150.582 87.9757 150.747 88.0583C151.53 88.5955 151.736 89.422 152.107 90.2071C152.148 90.3311 152.231 90.4964 152.189 90.579C151.612 91.2815 152.189 91.4468 152.725 91.6534C152.437 92.3972 152.437 93.0584 153.22 93.5129C153.343 93.5956 153.384 93.8435 153.426 94.0088C153.632 94.6699 153.838 95.3724 154.044 96.0336C154.126 96.2402 154.126 96.4881 154.085 96.7774C153.549 96.4468 152.972 96.2815 152.807 95.5377C152.725 95.1245 152.231 94.7939 152.024 94.3807C151.612 93.4303 151.283 92.3972 150.912 91.4468C150.706 90.8683 150.376 90.3311 150.17 89.7525C149.881 89.0501 149.634 88.3063 149.387 87.5625C149.14 86.86 148.851 86.1575 148.604 85.455C148.522 85.2071 148.398 84.9178 148.315 84.6286C148.151 84.174 147.862 83.7195 147.862 83.2649C147.945 82.3971 147.491 81.7773 147.244 81.0335C146.873 79.9591 146.708 78.8434 146.502 77.7277C146.461 77.5211 146.543 77.2731 146.543 77.0252C146.296 76.8599 146.379 76.8599 146.461 76.8186ZM150.829 14.9174C150.788 15.0001 150.747 15.0827 150.706 15.1654C150.994 15.3307 151.283 15.5373 151.53 15.7026C151.654 15.4546 151.777 15.2067 151.942 14.8348C151.448 14.8348 151.159 14.8761 150.829 14.9174Z"/>
<path fill-rule="evenodd" clip-rule="evenodd" d="M55.6309 33.8844C55.5485 34.5869 55.466 35.0827 55.4248 35.5786C55.3012 36.8596 55.1363 38.1406 55.0127 39.4216C55.0127 39.5456 55.0127 39.6695 54.9303 39.7935C54.2709 41.2811 54.5182 42.8101 54.7242 44.339C54.7655 44.5456 54.7242 44.7522 54.7242 44.9175C54.7242 45.62 54.683 46.3225 54.7242 47.0663C54.7655 48.4299 54.8479 49.8349 54.9303 51.1985C55.0127 52.6862 55.1364 54.1324 55.1776 55.6201C55.1776 56.1572 55.0539 56.6944 54.9715 57.149C55.0539 57.6449 55.2188 58.0994 55.2188 58.5539C55.26 60.0416 55.2188 61.5292 55.3424 63.0168C55.3836 63.8846 55.6309 64.711 55.7545 65.5788C55.837 65.992 55.8369 66.4466 55.8782 66.9011C55.9194 67.9755 56.0018 69.0086 56.043 70.0829C56.043 70.2069 56.0842 70.3722 56.043 70.4548C55.6721 71.3639 55.9194 72.2317 56.0842 73.1408C56.2078 73.9259 56.2903 74.7524 56.3315 75.5788C56.3315 75.7028 56.1254 75.8681 56.0842 75.9094C56.2078 76.8185 56.3727 77.5623 56.4551 78.3475C56.5375 79.1739 56.4963 80.0004 56.5375 80.8268C56.5788 82.1905 56.6612 83.5541 56.6612 84.9177C56.6612 86.4467 56.5375 87.9756 56.4963 89.5045C56.4963 90.0831 56.5375 90.6202 56.4963 91.1988C56.3727 92.4384 56.1254 93.7194 56.1254 94.9591C56.1254 95.8269 55.8369 96.4467 55.4248 97.1492C55.0127 97.8517 55.1364 98.8021 54.8891 99.6286C54.683 100.372 54.6006 101.24 53.8588 101.447C53.7764 102.108 53.7764 102.645 53.6527 103.224C53.4055 104.339 53.117 105.414 52.7461 106.488C52.4576 107.315 52.0867 108.1 51.7158 108.885C51.3449 109.67 50.974 110.455 50.4795 111.199C50.0261 111.901 49.4904 112.563 48.8722 113.182C47.9656 114.05 46.9765 114.877 45.9874 115.703C44.9983 116.529 43.968 117.191 42.6493 117.356C41.3305 117.563 40.053 117.976 38.7342 118.224C37.9512 118.348 37.1269 118.348 36.3439 118.306C36.1379 118.306 35.9318 118.058 35.9318 118.058C35.2724 118.058 34.8191 118.058 34.3658 118.058C33.6652 118.058 33.0882 117.893 32.4288 117.563C31.8519 117.273 31.2749 116.406 30.3271 116.86C30.121 116.943 29.6677 116.447 29.2556 116.199C28.8847 116.653 28.3901 116.158 27.9368 115.951C27.6895 115.868 27.401 115.868 27.1538 115.786C26.5768 115.62 25.9999 115.414 25.4229 115.248C24.7635 115.042 23.9805 115.001 23.486 114.587C22.8678 114.091 21.7139 113.967 21.8787 112.769C21.8787 112.728 21.7963 112.728 21.6726 112.645C21.5902 112.852 21.5078 113.058 21.343 113.389C21.0545 113.058 20.6836 112.852 20.6012 112.521C20.3951 111.819 19.983 111.819 19.406 111.943C19.0763 112.025 18.4169 111.86 18.3757 111.695C18.1285 110.91 17.4279 111.034 16.9745 110.786C16.8509 110.62 16.7685 110.372 16.6449 110.207C16.48 110.042 16.1503 109.959 16.0267 109.753C15.697 109.215 15.3261 108.967 14.6667 109.133C14.5431 109.174 14.2958 108.926 14.1722 108.72C13.76 108.058 13.7188 107.067 12.7298 106.819C10.9577 106.364 10.051 104.711 8.64983 103.719C8.27893 103.43 7.99045 102.976 7.74318 102.562C7.66076 102.438 7.8256 102.149 7.90802 101.943C6.17714 101.281 6.01229 101.034 6.63047 100.042C5.84745 100.124 5.55897 99.6286 5.35291 99.0087C5.27049 98.7608 4.89959 98.5955 4.69353 98.3889C4.52868 98.2649 4.36384 98.0996 4.28141 97.9343C3.74567 96.86 3.25113 95.7856 2.79781 94.7112C2.30327 93.5128 1.56146 92.2731 1.43783 91.0335C1.3554 89.9591 0.860865 89.2153 0.613597 88.2649C0.613597 88.2235 0.572383 88.2235 0.572383 88.1822C0.902074 87.0665 0.160267 86.1574 0.0366324 85.1244C0.0366324 85.0004 -0.0457905 84.8351 0.0366324 84.7525C0.613593 84.0086 0.119059 83.2235 0.201482 82.3971C0.242693 82.3971 0.325116 82.3557 0.407539 82.3144C1.52025 82.1904 1.52025 82.1904 1.19055 83.3475C1.10813 83.5954 1.14934 83.8847 1.19055 84.1326C1.39661 85.4549 1.47904 86.8186 1.97358 88.0169C2.26206 88.7194 2.056 89.3806 2.26206 90.0004C2.34448 90.2897 2.71538 90.5376 3.00386 90.7855C3.33355 91.0335 3.78688 91.1988 3.29234 91.736C3.20992 91.8186 3.20992 92.1079 3.29234 92.2731C3.70446 92.9756 3.4984 94.0913 4.65232 94.3393C4.81717 94.3806 4.89959 94.6699 5.02322 94.8352C4.89959 94.9178 4.77596 94.9591 4.65232 95.0418C4.69353 95.1244 4.69353 95.1657 4.69353 95.2071C5.3117 95.7029 5.64139 96.2814 5.80624 97.1079C5.88866 97.6038 6.50683 97.9757 6.87774 98.4302C7.00137 98.5542 7.28985 98.5542 7.33107 98.6781C7.70197 99.9591 8.85589 100.62 9.6389 101.612C9.80375 101.819 10.0098 102.108 10.051 102.356C10.1334 103.43 11.1225 103.596 11.6995 104.133C12.0292 104.422 12.2764 104.753 12.5649 105.083C12.771 105.331 12.8946 105.703 13.1419 105.827C14.8315 106.447 16.0679 107.728 17.5103 108.761C18.2521 109.257 18.9939 109.711 19.7769 110.166C21.3018 111.034 22.7854 111.86 24.3102 112.686C24.6399 112.852 24.9696 112.976 25.2993 113.141C26.412 113.637 27.4835 114.215 28.5962 114.629C29.7089 115.042 30.8628 115.29 31.9755 115.62C32.2228 115.703 32.4701 115.951 32.7173 116.034C33.2943 116.199 33.8712 116.323 34.4894 116.447C34.9015 116.529 35.3136 116.529 35.7258 116.529C36.2615 116.529 36.8385 116.488 37.3742 116.406C38.1984 116.323 39.0227 116.24 39.8469 116.075C40.5475 115.951 41.2481 115.786 41.8663 115.496C42.7729 115.083 43.8444 114.711 44.5038 114.009C45.6577 112.686 47.3062 111.86 48.0892 110.207C48.4189 109.505 49.0371 108.967 49.3668 108.306C49.7377 107.521 49.9025 106.653 50.191 105.868C50.6031 104.67 51.0976 103.554 51.4685 102.356C51.757 101.323 51.9219 100.248 52.1691 99.174C52.2928 98.6781 52.4988 98.1823 52.6225 97.6451C52.8697 96.6947 53.0758 95.7442 53.2818 94.7938C53.3643 94.4219 53.323 94.0087 53.3643 93.5955C53.4879 92.6451 53.694 91.6946 53.8176 90.7442C54.6418 90.7029 54.7242 90.5789 54.5182 89.7938C54.3946 89.8764 54.2709 89.9591 54.1473 90.0004C54.0236 90.0417 53.8176 90.0831 53.7352 90.0417C53.6527 90.0004 53.6115 89.7938 53.6527 89.6285C53.7352 88.6781 53.8588 87.7277 53.9 86.8186C53.9824 85.4136 54.1473 84.0086 54.0236 82.6037C53.9824 81.9425 53.9412 81.2814 53.9 80.6202C53.8588 79.5458 53.7764 78.4714 53.7352 77.397C53.694 76.2813 53.694 75.1656 53.6527 74.0912C53.6115 73.5127 53.6527 72.9755 53.4467 72.397C53.2406 71.8185 53.5291 71.0747 53.6115 70.2896C54.0236 70.4548 54.2709 70.5375 54.5182 70.6615C52.9521 69.7524 52.9522 68.4714 53.5291 66.9011C52.54 66.2399 53.2818 65.2482 53.1582 64.3804C52.9934 63.3474 53.117 62.2317 53.0346 61.1573C52.9934 60.7027 52.7873 60.2482 52.7461 59.7936C52.7049 59.5044 52.8697 59.2151 52.9934 58.8019C52.3752 58.5126 52.2928 57.9754 52.54 57.149C52.7049 56.5291 52.4576 55.7853 52.3752 55.0829C52.2928 54.2564 52.2516 53.43 52.2103 52.6035C52.2103 52.4795 52.1691 52.3142 52.2103 52.2316C52.8285 51.3225 52.4576 50.4547 52.2928 49.5456C52.1279 48.4713 52.2103 47.3555 52.1691 46.2398C52.1691 45.9919 52.0455 45.7853 52.0043 45.5787C51.9219 45.5787 51.8394 45.5374 51.757 45.5374C51.4685 46.1572 51.1801 46.7357 50.8504 47.3555C50.5619 47.8927 50.3146 48.4713 49.9849 49.0084C49.2843 50.1242 48.5425 51.1985 47.8007 52.2729C47.2238 53.0581 46.688 53.8432 46.0286 54.587C44.9571 55.868 43.8032 57.0663 42.6905 58.306C42.5669 58.43 42.3196 58.5539 42.1548 58.5539C41.7014 58.5126 41.3717 58.5126 41.4129 59.0911C41.4129 59.1738 41.3305 59.2978 41.2481 59.3391C40.5063 59.835 39.7645 60.3721 39.0227 60.8267C38.116 61.3226 37.1682 61.7771 36.2203 62.2317C34.9427 62.8515 33.5828 62.9341 32.264 62.3969C31.7283 62.149 31.687 61.9011 32.0579 61.4879C32.5113 60.9507 33.0058 60.6614 33.7476 60.7027C34.5306 60.744 35.2724 60.6614 35.973 60.0829C36.6324 59.5044 37.4979 59.2564 38.2397 58.7606C39.0227 58.2647 39.8057 57.6862 40.5475 57.1077C41.1657 56.6531 41.7838 56.2812 42.3196 55.744C42.6493 55.4548 42.8141 54.9589 43.0614 54.587C43.2675 54.2977 43.4735 54.0085 43.7208 53.7192C44.0505 53.306 44.4626 52.9341 44.7923 52.5209C45.2456 51.9837 45.6989 51.4052 46.1111 50.8266C46.3583 50.4547 46.6056 50.0828 46.8116 49.6696C47.1001 49.1324 47.3062 48.5952 47.5947 48.058C47.8007 47.7274 48.2128 47.5208 48.3777 47.1903C48.6662 46.6531 48.7898 46.0332 49.0783 45.496C49.3667 44.9588 49.7789 44.5043 50.1498 43.9671C50.191 43.8844 50.2322 43.8018 50.2322 43.7605C50.1498 42.4795 51.0976 41.5291 51.2213 40.3307C51.2213 40.2894 51.2213 40.2894 51.2213 40.2481C52.0455 39.2976 52.0455 38.0993 52.1691 36.9009C52.1691 36.8183 52.2516 36.6943 52.2516 36.6117C52.2516 35.7439 52.2516 34.9175 52.2516 34.0497C52.2516 33.6778 52.3752 33.3472 52.4164 32.9753C52.54 31.7769 52.7049 30.5786 52.8285 29.2976C53.1994 29.3389 53.5703 29.3389 53.9412 29.3802C52.7461 28.9257 53.3231 28.1406 53.3231 27.3554C53.2818 26.2397 53.9 25.2893 53.7352 24.2562C53.694 24.0496 53.5703 23.843 53.5291 23.6777C53.6527 23.4298 53.9 23.2232 53.9 22.9752C53.8588 22.1901 54.3946 21.6529 54.9715 21.6942C55.5073 21.7356 56.2491 22.1901 56.5375 22.686C56.9084 23.3058 56.9497 24.1323 57.0733 24.8761C57.1145 25.1653 57.1557 25.4546 57.1145 25.7438C57.1145 26.2397 57.0321 26.6943 57.0321 27.1901C56.9909 27.686 57.0733 28.2232 56.9497 28.6778C56.8672 29.0497 56.4963 29.3389 56.2079 29.7108C56.9497 31.1571 55.8369 32.5621 55.8369 34.091C55.7957 33.8018 55.5485 33.9257 55.6309 33.8844Z"/>
</svg>
