<svg width="40" height="40" viewBox="0 0 40 40" xmlns="http://www.w3.org/2000/svg">
<path fill-rule="evenodd" clip-rule="evenodd" d="M20 40C31.0457 40 40 31.0457 40 20C40 8.9543 31.0457 0 20 0C8.9543 0 0 8.9543 0 20C0 31.0457 8.9543 40 20 40ZM12 23.7719V28H16.2281L24.1947 20.0334L25.4409 21.3241L26.7093 20.0556L25.0181 18.3199L27.7552 15.5828C27.9184 15.4196 28 15.2119 28 14.9597C28 14.7075 27.9184 14.4998 27.7552 14.3366L25.6634 12.2448C25.5002 12.0816 25.2925 12 25.0403 12C24.7881 12 24.5804 12.0816 24.4172 12.2448L21.6579 15.0042L19.9666 13.3129L18.6759 14.5591L19.9666 15.8053L12 23.7719ZM15.516 26.2197H13.7803V24.484L21.2128 17.096L22.904 18.7872L15.516 26.2197Z" />
</svg>
